<mxfile host="app.diagrams.net" modified="2023-07-04T02:23:01.385Z" agent="Mozilla/5.0 (Macintosh; Intel Mac OS X 10.15; rv:102.0) Gecko/20100101 Firefox/102.0" etag="0odXY396QUHGWaYv83mz" version="21.3.5" type="device">
  <diagram id="6V1RkcjRgHDBsygKQ3vI" name="Page-1">
    <mxGraphModel dx="1669" dy="1021" grid="0" gridSize="10" guides="1" tooltips="1" connect="1" arrows="1" fold="1" page="1" pageScale="1" pageWidth="1100" pageHeight="850" math="0" shadow="0">
      <root>
        <mxCell id="0" />
        <mxCell id="1" parent="0" />
        <mxCell id="mRjOx6q8iTEAwvPDBnvQ-6" value="VOD Migrator Sample Scope" style="outlineConnect=0;gradientColor=none;html=1;whiteSpace=wrap;fontSize=12;fontStyle=0;strokeColor=#879196;fillColor=none;verticalAlign=top;align=center;fontColor=#879196;dashed=1;spacingTop=3;labelBorderColor=none;" parent="1" vertex="1">
          <mxGeometry x="304" y="265" width="234" height="257" as="geometry" />
        </mxCell>
        <mxCell id="BhjHeKepnxJZUbuVkv7W-7" style="edgeStyle=orthogonalEdgeStyle;rounded=0;orthogonalLoop=1;jettySize=auto;html=1;labelBorderColor=none;" edge="1" parent="1" source="5ICaHRkHiHaQeu593VTu-4" target="BhjHeKepnxJZUbuVkv7W-5">
          <mxGeometry relative="1" as="geometry" />
        </mxCell>
        <mxCell id="5ICaHRkHiHaQeu593VTu-4" value="&lt;div&gt;AWS Elemental MediaPackage&lt;/div&gt;&lt;div&gt;Workflow Example&lt;/div&gt;" style="outlineConnect=0;gradientColor=none;html=1;whiteSpace=wrap;fontSize=12;fontStyle=0;strokeColor=#879196;fillColor=none;verticalAlign=top;align=center;fontColor=#879196;dashed=1;spacingTop=3;labelBorderColor=none;" parent="1" vertex="1">
          <mxGeometry x="721" y="568" width="280" height="182" as="geometry" />
        </mxCell>
        <mxCell id="k0CTMhvSvrrrKz5V2yOf-1" value="AWS Step Functions workflow" style="points=[[0,0],[0.25,0],[0.5,0],[0.75,0],[1,0],[1,0.25],[1,0.5],[1,0.75],[1,1],[0.75,1],[0.5,1],[0.25,1],[0,1],[0,0.75],[0,0.5],[0,0.25]];outlineConnect=0;gradientColor=none;html=1;whiteSpace=wrap;fontSize=12;fontStyle=0;shape=mxgraph.aws4.group;grIcon=mxgraph.aws4.group_aws_step_functions_workflow;strokeColor=#CD2264;fillColor=none;verticalAlign=top;align=left;spacingLeft=30;fontColor=#CD2264;dashed=0;labelBorderColor=none;" parent="1" vertex="1">
          <mxGeometry x="333" y="311" width="176" height="174.25" as="geometry" />
        </mxCell>
        <mxCell id="BhjHeKepnxJZUbuVkv7W-3" style="edgeStyle=orthogonalEdgeStyle;rounded=0;orthogonalLoop=1;jettySize=auto;html=1;labelBorderColor=none;" edge="1" parent="1" source="5ICaHRkHiHaQeu593VTu-1" target="BhjHeKepnxJZUbuVkv7W-2">
          <mxGeometry relative="1" as="geometry" />
        </mxCell>
        <mxCell id="5ICaHRkHiHaQeu593VTu-1" value="&lt;div&gt;Public Distribution&lt;/div&gt;&lt;div&gt;Workflow Example&lt;/div&gt;" style="outlineConnect=0;gradientColor=none;html=1;whiteSpace=wrap;fontSize=12;fontStyle=0;strokeColor=#879196;fillColor=none;verticalAlign=top;align=center;fontColor=#879196;dashed=1;spacingTop=3;labelBorderColor=none;" parent="1" vertex="1">
          <mxGeometry x="721" y="83" width="280" height="160" as="geometry" />
        </mxCell>
        <mxCell id="5ICaHRkHiHaQeu593VTu-10" style="edgeStyle=orthogonalEdgeStyle;rounded=0;orthogonalLoop=1;jettySize=auto;html=1;labelBorderColor=none;" parent="1" source="k0CTMhvSvrrrKz5V2yOf-5" target="5ICaHRkHiHaQeu593VTu-3" edge="1">
          <mxGeometry relative="1" as="geometry" />
        </mxCell>
        <mxCell id="k0CTMhvSvrrrKz5V2yOf-5" value="S3" style="outlineConnect=0;fontColor=#232F3E;gradientColor=#60A337;gradientDirection=north;fillColor=#277116;strokeColor=#ffffff;dashed=0;verticalLabelPosition=bottom;verticalAlign=top;align=center;html=1;fontSize=12;fontStyle=0;aspect=fixed;shape=mxgraph.aws4.resourceIcon;resIcon=mxgraph.aws4.s3;labelBorderColor=none;" parent="1" vertex="1">
          <mxGeometry x="579" y="362" width="78" height="78" as="geometry" />
        </mxCell>
        <mxCell id="k0CTMhvSvrrrKz5V2yOf-14" value="" style="endArrow=classic;html=1;exitX=1;exitY=0.5;exitDx=0;exitDy=0;exitPerimeter=0;labelBorderColor=none;" parent="1" source="5ICaHRkHiHaQeu593VTu-12" target="k0CTMhvSvrrrKz5V2yOf-5" edge="1">
          <mxGeometry width="50" height="50" relative="1" as="geometry">
            <mxPoint x="444" y="402" as="sourcePoint" />
            <mxPoint x="525" y="402" as="targetPoint" />
          </mxGeometry>
        </mxCell>
        <mxCell id="k0CTMhvSvrrrKz5V2yOf-20" value="" style="endArrow=classic;html=1;exitX=1;exitY=0.5;exitDx=0;exitDy=0;labelBorderColor=none;" parent="1" source="mRjOx6q8iTEAwvPDBnvQ-1" target="5ICaHRkHiHaQeu593VTu-12" edge="1">
          <mxGeometry width="50" height="50" relative="1" as="geometry">
            <mxPoint x="305.99999999999955" y="402.0019607843137" as="sourcePoint" />
            <mxPoint x="381" y="402" as="targetPoint" />
          </mxGeometry>
        </mxCell>
        <mxCell id="k0CTMhvSvrrrKz5V2yOf-22" value="&lt;div&gt;DASH / HLS / CMAF&lt;br&gt;&lt;/div&gt;" style="text;html=1;align=center;verticalAlign=middle;resizable=0;points=[];autosize=1;labelBorderColor=none;" parent="1" vertex="1">
          <mxGeometry x="181" y="406" width="121" height="18" as="geometry" />
        </mxCell>
        <mxCell id="mRjOx6q8iTEAwvPDBnvQ-1" value="Legacy Video Platform" style="image;html=1;labelBackgroundColor=none;image=img/lib/clip_art/networking/Cloud_Server_128x128.png;labelBorderColor=none;" parent="1" vertex="1">
          <mxGeometry x="75" y="362" width="80" height="80" as="geometry" />
        </mxCell>
        <mxCell id="mRjOx6q8iTEAwvPDBnvQ-4" value="CloudFront" style="outlineConnect=0;fontColor=#232F3E;gradientColor=#945DF2;gradientDirection=north;fillColor=#5A30B5;strokeColor=#ffffff;dashed=0;verticalLabelPosition=bottom;verticalAlign=top;align=center;html=1;fontSize=12;fontStyle=0;aspect=fixed;shape=mxgraph.aws4.resourceIcon;resIcon=mxgraph.aws4.cloudfront;labelBorderColor=none;" parent="1" vertex="1">
          <mxGeometry x="755" y="128" width="78" height="78" as="geometry" />
        </mxCell>
        <mxCell id="mRjOx6q8iTEAwvPDBnvQ-5" value="" style="endArrow=classic;html=1;labelBorderColor=none;" parent="1" source="k0CTMhvSvrrrKz5V2yOf-5" target="mRjOx6q8iTEAwvPDBnvQ-4" edge="1">
          <mxGeometry width="50" height="50" relative="1" as="geometry">
            <mxPoint x="478.99999999999955" y="412.0019607843137" as="sourcePoint" />
            <mxPoint x="589" y="411.26225819186743" as="targetPoint" />
          </mxGeometry>
        </mxCell>
        <mxCell id="BhjHeKepnxJZUbuVkv7W-6" style="edgeStyle=orthogonalEdgeStyle;rounded=0;orthogonalLoop=1;jettySize=auto;html=1;labelBorderColor=none;" edge="1" parent="1" source="5ICaHRkHiHaQeu593VTu-2" target="BhjHeKepnxJZUbuVkv7W-4">
          <mxGeometry relative="1" as="geometry" />
        </mxCell>
        <mxCell id="5ICaHRkHiHaQeu593VTu-2" value="Secure Media Delivery at the Edge on AWS Workflow Example" style="outlineConnect=0;gradientColor=none;html=1;whiteSpace=wrap;fontSize=12;fontStyle=0;strokeColor=#879196;fillColor=none;verticalAlign=top;align=center;fontColor=#879196;dashed=1;spacingTop=3;labelBorderColor=none;" parent="1" vertex="1">
          <mxGeometry x="721" y="255" width="280" height="302" as="geometry" />
        </mxCell>
        <mxCell id="5ICaHRkHiHaQeu593VTu-3" value="CloudFront" style="outlineConnect=0;fontColor=#232F3E;gradientColor=#945DF2;gradientDirection=north;fillColor=#5A30B5;strokeColor=#ffffff;dashed=0;verticalLabelPosition=bottom;verticalAlign=top;align=center;html=1;fontSize=12;fontStyle=0;aspect=fixed;shape=mxgraph.aws4.resourceIcon;resIcon=mxgraph.aws4.cloudfront;labelBorderColor=none;" parent="1" vertex="1">
          <mxGeometry x="755" y="362" width="78" height="78" as="geometry" />
        </mxCell>
        <mxCell id="5ICaHRkHiHaQeu593VTu-5" value="CloudFront" style="outlineConnect=0;fontColor=#232F3E;gradientColor=#945DF2;gradientDirection=north;fillColor=#5A30B5;strokeColor=#ffffff;dashed=0;verticalLabelPosition=bottom;verticalAlign=top;align=center;html=1;fontSize=12;fontStyle=0;aspect=fixed;shape=mxgraph.aws4.resourceIcon;resIcon=mxgraph.aws4.cloudfront;labelBorderColor=none;" parent="1" vertex="1">
          <mxGeometry x="889" y="620" width="78" height="78" as="geometry" />
        </mxCell>
        <mxCell id="5ICaHRkHiHaQeu593VTu-6" value="&lt;div&gt;AWS Elemental&lt;/div&gt;&lt;div&gt;MediaPackage&lt;/div&gt;" style="sketch=0;points=[[0,0,0],[0.25,0,0],[0.5,0,0],[0.75,0,0],[1,0,0],[0,1,0],[0.25,1,0],[0.5,1,0],[0.75,1,0],[1,1,0],[0,0.25,0],[0,0.5,0],[0,0.75,0],[1,0.25,0],[1,0.5,0],[1,0.75,0]];outlineConnect=0;fontColor=#232F3E;gradientColor=#F78E04;gradientDirection=north;fillColor=#D05C17;strokeColor=#ffffff;dashed=0;verticalLabelPosition=bottom;verticalAlign=top;align=center;html=1;fontSize=12;fontStyle=0;aspect=fixed;shape=mxgraph.aws4.resourceIcon;resIcon=mxgraph.aws4.elemental_mediapackage;labelBorderColor=none;" parent="1" vertex="1">
          <mxGeometry x="755" y="620" width="78" height="78" as="geometry" />
        </mxCell>
        <mxCell id="5ICaHRkHiHaQeu593VTu-9" value="" style="endArrow=classic;html=1;entryX=0;entryY=0.5;entryDx=0;entryDy=0;entryPerimeter=0;labelBorderColor=none;" parent="1" source="k0CTMhvSvrrrKz5V2yOf-5" target="5ICaHRkHiHaQeu593VTu-6" edge="1">
          <mxGeometry width="50" height="50" relative="1" as="geometry">
            <mxPoint x="656" y="372" as="sourcePoint" />
            <mxPoint x="642" y="662" as="targetPoint" />
          </mxGeometry>
        </mxCell>
        <mxCell id="5ICaHRkHiHaQeu593VTu-12" value="&lt;div&gt;AWS Lambda&lt;/div&gt;&lt;div&gt;Function&lt;br&gt;&lt;/div&gt;" style="outlineConnect=0;dashed=0;verticalLabelPosition=bottom;verticalAlign=top;align=center;html=1;shape=mxgraph.aws3.lambda_function;fillColor=#F58534;gradientColor=none;labelBorderColor=none;" parent="1" vertex="1">
          <mxGeometry x="386.5" y="366" width="69" height="72" as="geometry" />
        </mxCell>
        <mxCell id="IlLjVqS1i57y3N6Vqv3P-1" value="AWS WAF" style="outlineConnect=0;fontColor=#232F3E;gradientColor=#F54749;gradientDirection=north;fillColor=#C7131F;strokeColor=#ffffff;dashed=0;verticalLabelPosition=bottom;verticalAlign=top;align=center;html=1;fontSize=12;fontStyle=0;aspect=fixed;shape=mxgraph.aws4.resourceIcon;resIcon=mxgraph.aws4.waf;labelBorderColor=none;" parent="1" vertex="1">
          <mxGeometry x="889" y="449" width="78" height="78" as="geometry" />
        </mxCell>
        <mxCell id="BhjHeKepnxJZUbuVkv7W-1" value="&lt;div&gt;CloudFront&lt;/div&gt;&lt;div&gt;Functions&lt;/div&gt;" style="sketch=0;outlineConnect=0;fontColor=#232F3E;gradientColor=none;fillColor=#4D27AA;strokeColor=none;dashed=0;verticalLabelPosition=bottom;verticalAlign=top;align=center;html=1;fontSize=12;fontStyle=0;aspect=fixed;pointerEvents=1;shape=mxgraph.aws4.cloudfront_functions;labelBorderColor=none;" vertex="1" parent="1">
          <mxGeometry x="889" y="318" width="78" height="78" as="geometry" />
        </mxCell>
        <mxCell id="BhjHeKepnxJZUbuVkv7W-2" value="devices" style="sketch=0;outlineConnect=0;gradientColor=none;fontColor=#545B64;strokeColor=none;fillColor=#879196;dashed=0;verticalLabelPosition=bottom;verticalAlign=top;align=center;html=1;fontSize=12;fontStyle=0;aspect=fixed;shape=mxgraph.aws4.illustration_devices;pointerEvents=1;labelBorderColor=none;" vertex="1" parent="1">
          <mxGeometry x="1082" y="126.5" width="100" height="73" as="geometry" />
        </mxCell>
        <mxCell id="BhjHeKepnxJZUbuVkv7W-4" value="devices" style="sketch=0;outlineConnect=0;gradientColor=none;fontColor=#545B64;strokeColor=none;fillColor=#879196;dashed=0;verticalLabelPosition=bottom;verticalAlign=top;align=center;html=1;fontSize=12;fontStyle=0;aspect=fixed;shape=mxgraph.aws4.illustration_devices;pointerEvents=1;labelBorderColor=none;" vertex="1" parent="1">
          <mxGeometry x="1082" y="369.5" width="100" height="73" as="geometry" />
        </mxCell>
        <mxCell id="BhjHeKepnxJZUbuVkv7W-5" value="devices" style="sketch=0;outlineConnect=0;gradientColor=none;fontColor=#545B64;strokeColor=none;fillColor=#879196;dashed=0;verticalLabelPosition=bottom;verticalAlign=top;align=center;html=1;fontSize=12;fontStyle=0;aspect=fixed;shape=mxgraph.aws4.illustration_devices;pointerEvents=1;labelBorderColor=none;" vertex="1" parent="1">
          <mxGeometry x="1082" y="622.5" width="100" height="73" as="geometry" />
        </mxCell>
      </root>
    </mxGraphModel>
  </diagram>
</mxfile>
